<svg xmlns="http://www.w3.org/2000/svg" viewBox="0 0 120 120" width="120" height="120">
  <!-- Cape -->
  <path d="M28 88 Q15 108 22 118 Q40 108 48 96" fill="#AA1800"/>
  <path d="M92 88 Q105 108 98 118 Q80 108 72 96" fill="#AA1800"/>
  <ellipse cx="60" cy="95" rx="30" ry="16" fill="#CC2200"/>
  <ellipse cx="60" cy="88" rx="20" ry="12" fill="#FFD700"/>
  
  <!-- Head -->
  <circle cx="60" cy="57" r="28" fill="#FFD580"/>
  
  <!-- Mask -->
  <path d="M33 50 Q60 41 87 50 L87 62 Q60 53 33 62 Z" fill="#CC2200"/>
  <ellipse cx="47" cy="55" rx="8" ry="6" fill="#FFD580"/>
  <ellipse cx="73" cy="55" rx="8" ry="6" fill="#FFD580"/>
  
  <!-- Angry eyes -->
  <circle cx="47" cy="56" r="5" fill="#111"/>
  <circle cx="73" cy="56" r="5" fill="#111"/>
  <circle cx="49" cy="54" r="1.8" fill="white"/>
  <circle cx="75" cy="54" r="1.8" fill="white"/>
  
  <!-- VERY steep angry eyebrows -->
  <path d="M36 44 L53 52" stroke="#8B0000" stroke-width="4.5" stroke-linecap="round"/>
  <path d="M67 52 L84 44" stroke="#8B0000" stroke-width="4.5" stroke-linecap="round"/>
  
  <!-- Big angry frown with gritted teeth -->
  <path d="M43 75 Q52 65 60 64 Q68 65 77 75" fill="#CC3300" stroke="#8B0000" stroke-width="2.5" stroke-linecap="round"/>
  <path d="M46 74 Q53 67 60 66 Q67 67 74 74" fill="white"/>
  <line x1="53" y1="67" x2="53" y2="74" stroke="#CC3300" stroke-width="1.5"/>
  <line x1="60" y1="66" x2="60" y2="74" stroke="#CC3300" stroke-width="1.5"/>
  <line x1="67" y1="67" x2="67" y2="74" stroke="#CC3300" stroke-width="1.5"/>
  
  <!-- Steam -->
  <path d="M36 30 Q33 24 36 18" stroke="#FF5500" stroke-width="2.5" fill="none" stroke-linecap="round"/>
  <path d="M43 27 Q40 21 43 15" stroke="#FF5500" stroke-width="2.5" fill="none" stroke-linecap="round"/>

  <!-- Ears -->
  <ellipse cx="32" cy="57" rx="5" ry="7" fill="#FFD580"/>
  <ellipse cx="88" cy="57" rx="5" ry="7" fill="#FFD580"/>
  
  <!-- Helmet -->
  <path d="M33 44 Q44 27 60 25 Q76 27 87 44" fill="#CC2200"/>
  <path d="M55 25 Q58 15 60 12 Q62 15 65 25" fill="#AA1000"/>
</svg>
