<svg xmlns="http://www.w3.org/2000/svg" viewBox="0 0 120 120" width="120" height="120">
  <!-- Cape -->
  <path d="M28 88 Q15 108 22 118 Q40 108 48 96" fill="#0088CC"/>
  <path d="M92 88 Q105 108 98 118 Q80 108 72 96" fill="#0088CC"/>
  <ellipse cx="60" cy="95" rx="30" ry="16" fill="#00AAFF"/>
  <ellipse cx="60" cy="88" rx="20" ry="12" fill="#FFD700"/>
  
  <!-- Head -->
  <circle cx="60" cy="57" r="28" fill="#FFD580"/>
  
  <!-- Mask - blue -->
  <path d="M33 49 Q60 40 87 49 L87 61 Q60 52 33 61 Z" fill="#00AAFF"/>
  <ellipse cx="47" cy="54" rx="8" ry="6" fill="#FFD580"/>
  <ellipse cx="73" cy="54" rx="8" ry="6" fill="#FFD580"/>
  
  <!-- Happy squinting eyes (arcs) -->
  <path d="M41 57 Q47 51 53 57" stroke="#111" stroke-width="3" fill="none" stroke-linecap="round"/>
  <path d="M67 57 Q73 51 79 57" stroke="#111" stroke-width="3" fill="none" stroke-linecap="round"/>
  
  <!-- Raised happy eyebrows -->
  <path d="M41 46 Q47 43 53 46" stroke="#0088CC" stroke-width="3" fill="none" stroke-linecap="round"/>
  <path d="M67 46 Q73 43 79 46" stroke="#0088CC" stroke-width="3" fill="none" stroke-linecap="round"/>
  
  <!-- HUGE open smile -->
  <path d="M42 68 Q60 86 78 68" fill="#CC6600" stroke="#AA4400" stroke-width="2"/>
  <!-- Teeth -->
  <path d="M45 69 Q60 82 75 69" fill="white"/>
  <!-- Tongue -->
  <ellipse cx="60" cy="79" rx="8" ry="5" fill="#FF7799"/>
  
  <!-- Big rosy cheeks -->
  <ellipse cx="38" cy="67" rx="9" ry="6" fill="#FFB3A0" opacity="0.65"/>
  <ellipse cx="82" cy="67" rx="9" ry="6" fill="#FFB3A0" opacity="0.65"/>
  
  <!-- Ears -->
  <ellipse cx="32" cy="57" rx="5" ry="7" fill="#FFD580"/>
  <ellipse cx="88" cy="57" rx="5" ry="7" fill="#FFD580"/>
  
  <!-- Helmet -->
  <path d="M33 43 Q44 26 60 24 Q76 26 87 43" fill="#00AAFF"/>
  <path d="M55 24 Q58 14 60 11 Q62 14 65 24" fill="#0088CC"/>
</svg>
