<svg xmlns="http://www.w3.org/2000/svg" viewBox="0 0 120 120" width="120" height="120">
  <!-- Cape -->
  <path d="M28 90 Q14 110 21 119 Q40 110 47 98" fill="#1133AA"/>
  <path d="M92 90 Q106 110 99 119 Q80 110 73 98" fill="#1133AA"/>
  <ellipse cx="60" cy="97" rx="30" ry="15" fill="#2255CC"/>
  <ellipse cx="60" cy="90" rx="20" ry="12" fill="#55AAFF"/>
  
  <!-- Head -->
  <circle cx="60" cy="57" r="28" fill="#FFD580"/>
  
  <!-- Mask - dark blue -->
  <path d="M33 50 Q60 41 87 50 L87 62 Q60 53 33 62 Z" fill="#2255CC"/>
  <ellipse cx="47" cy="55" rx="8" ry="6" fill="#FFD580"/>
  <ellipse cx="73" cy="55" rx="8" ry="6" fill="#FFD580"/>
  
  <!-- Sad puppy dog eyes - large with watery shine -->
  <circle cx="47" cy="56" r="6" fill="#111"/>
  <circle cx="73" cy="56" r="6" fill="#111"/>
  <circle cx="49.5" cy="53" r="2.2" fill="white"/>
  <circle cx="75.5" cy="53" r="2.2" fill="white"/>
  <!-- Watery bottom of eyes -->
  <ellipse cx="47" cy="60.5" rx="5" ry="2" fill="#88CCFF" opacity="0.7"/>
  <ellipse cx="73" cy="60.5" rx="5" ry="2" fill="#88CCFF" opacity="0.7"/>
  
  <!-- Very sad inner-up eyebrows -->
  <path d="M38 46 Q43 41 53 47" stroke="#2255CC" stroke-width="4" fill="none" stroke-linecap="round"/>
  <path d="M67 47 Q77 41 82 46" stroke="#2255CC" stroke-width="4" fill="none" stroke-linecap="round"/>
  
  <!-- Big sad frown -->
  <path d="M44 76 Q52 68 60 67 Q68 68 76 76" fill="#AA7744" stroke="#884422" stroke-width="2.5" stroke-linecap="round"/>
  <path d="M46 75 Q53 70 60 69 Q67 70 74 75" fill="#FFD580"/>
  
  <!-- Big fat tears -->
  <ellipse cx="43" cy="66" rx="3" ry="3" fill="#88CCFF"/>
  <path d="M43 69 Q41 76 43 79 Q45 76 43 69" fill="#88CCFF"/>
  <ellipse cx="77" cy="66" rx="3" ry="3" fill="#88CCFF"/>
  <path d="M77 69 Q75 76 77 79 Q79 76 77 69" fill="#88CCFF"/>
  
  <!-- Ears -->
  <ellipse cx="32" cy="57" rx="5" ry="7" fill="#FFD580"/>
  <ellipse cx="88" cy="57" rx="5" ry="7" fill="#FFD580"/>
  
  <!-- Helmet (slightly drooping) -->
  <path d="M33 44 Q44 27 60 25 Q76 27 87 44" fill="#2255CC"/>
  <path d="M55 25 Q58 15 60 12 Q62 15 65 25" fill="#1133AA"/>
</svg>
