<svg xmlns="http://www.w3.org/2000/svg" viewBox="0 0 64 64" fill="none">
  <defs>
    <linearGradient id="page-l" x1="4" y1="12" x2="4" y2="56" gradientUnits="userSpaceOnUse">
      <stop offset="0%" stop-color="#FFFFFF"/>
      <stop offset="100%" stop-color="#E8E0D0"/>
    </linearGradient>
    <linearGradient id="page-r" x1="60" y1="12" x2="60" y2="56" gradientUnits="userSpaceOnUse">
      <stop offset="0%" stop-color="#FFFFFF"/>
      <stop offset="100%" stop-color="#E8E0D0"/>
    </linearGradient>
    <linearGradient id="cover-l" x1="0" y1="10" x2="0" y2="58" gradientUnits="userSpaceOnUse">
      <stop offset="0%" stop-color="#FF8C42"/>
      <stop offset="100%" stop-color="#E05A10"/>
    </linearGradient>
    <linearGradient id="cover-r" x1="64" y1="10" x2="64" y2="58" gradientUnits="userSpaceOnUse">
      <stop offset="0%" stop-color="#FF8C42"/>
      <stop offset="100%" stop-color="#E05A10"/>
    </linearGradient>
    <linearGradient id="spine" x1="32" y1="10" x2="32" y2="58" gradientUnits="userSpaceOnUse">
      <stop offset="0%" stop-color="#C84A00"/>
      <stop offset="100%" stop-color="#A03800"/>
    </linearGradient>
  </defs>

  <!-- CAPA esquerda (laranja) -->
  <path d="M5 14 Q5 11 8 11 L30 11 L30 55 Q17 53 5 55.5 Z"
    fill="url(#cover-l)"/>
  <!-- Sombra interna capa esq -->
  <path d="M5 40 Q5 11 8 11 L30 11 L30 55 Q17 53 5 55.5 Z"
    fill="#C84A00" fill-opacity="0.0"/>
  <path d="M5 42 Q17 53 30 55 L30 55.5 Q17 54 5 56.5 Z"
    fill="#9A3600" fill-opacity="0.45"/>

  <!-- CAPA direita (laranja) -->
  <path d="M59 14 Q59 11 56 11 L34 11 L34 55 Q47 53 59 55.5 Z"
    fill="url(#cover-r)"/>
  <path d="M59 42 Q47 53 34 55 L34 55.5 Q47 54 59 56.5 Z"
    fill="#9A3600" fill-opacity="0.45"/>

  <!-- LOMBADA (spine) -->
  <rect x="29" y="11" width="6" height="44" fill="url(#spine)"/>

  <!-- PÁGINAS esquerda -->
  <path d="M8 16 Q8 14 10 14 L28 14 L28 52 Q18 50.5 8 52.5 Z"
    fill="url(#page-l)"/>
  <!-- Linhas página esq -->
  <path d="M12 22 L26 22" stroke="#D0C8B8" stroke-width="1.8" stroke-linecap="round"/>
  <path d="M12 27 L26 27" stroke="#D0C8B8" stroke-width="1.8" stroke-linecap="round"/>
  <path d="M12 32 L26 32" stroke="#D0C8B8" stroke-width="1.8" stroke-linecap="round"/>
  <path d="M12 37 L22 37" stroke="#D0C8B8" stroke-width="1.8" stroke-linecap="round"/>
  <!-- Sombra base página esq -->
  <path d="M8 46 Q18 50.5 28 52 L28 52.5 Q18 51.5 8 53 Z" fill="#C0B090" fill-opacity="0.5"/>

  <!-- PÁGINAS direita -->
  <path d="M56 16 Q56 14 54 14 L36 14 L36 52 Q46 50.5 56 52.5 Z"
    fill="url(#page-r)"/>
  <!-- Linhas página dir -->
  <path d="M38 22 L52 22" stroke="#D0C8B8" stroke-width="1.8" stroke-linecap="round"/>
  <path d="M38 27 L52 27" stroke="#D0C8B8" stroke-width="1.8" stroke-linecap="round"/>
  <path d="M38 32 L52 32" stroke="#D0C8B8" stroke-width="1.8" stroke-linecap="round"/>
  <path d="M38 37 L48 37" stroke="#D0C8B8" stroke-width="1.8" stroke-linecap="round"/>
  <path d="M56 46 Q46 50.5 36 52 L36 52.5 Q46 51.5 56 53 Z" fill="#C0B090" fill-opacity="0.5"/>

  <!-- Highlight capa esquerda -->
  <path d="M8 14 Q14 11 22 12" stroke="white" stroke-width="2" stroke-linecap="round" stroke-opacity="0.4" fill="none"/>
  <!-- Highlight capa direita -->
  <path d="M56 14 Q50 11 42 12" stroke="white" stroke-width="2" stroke-linecap="round" stroke-opacity="0.4" fill="none"/>

  <!-- Marcador (ribbon) laranja escuro -->
  <path d="M38 11 L38 22 L40 20 L42 22 L42 11 Z" fill="#C84A00"/>
</svg>
