<svg xmlns="http://www.w3.org/2000/svg" viewBox="5 4 46 46" fill="none">
  <defs>
    <linearGradient id="bg" x1="28" y1="0" x2="28" y2="56" gradientUnits="userSpaceOnUse">
      <stop offset="0%" stop-color="#3B5FA0"/>
      <stop offset="100%" stop-color="#1B2A4A"/>
    </linearGradient>
    <linearGradient id="shine" x1="14" y1="8" x2="38" y2="30" gradientUnits="userSpaceOnUse">
      <stop offset="0%" stop-color="#FFFFFF" stop-opacity="0.22"/>
      <stop offset="100%" stop-color="#FFFFFF" stop-opacity="0"/>
    </linearGradient>
    <radialGradient id="face-g" cx="45%" cy="38%" r="60%">
      <stop offset="0%" stop-color="#4A72B8"/>
      <stop offset="100%" stop-color="#2D4A7A"/>
    </radialGradient>
    <radialGradient id="glow-g" cx="50%" cy="50%" r="50%">
      <stop offset="0%" stop-color="#4DD9C0" stop-opacity="0.35"/>
      <stop offset="100%" stop-color="#4DD9C0" stop-opacity="0"/>
    </radialGradient>
  </defs>

  <circle cx="28" cy="30" r="24" fill="#0F1C30"/>
  <circle cx="28" cy="27" r="24" fill="url(#bg)"/>
  <circle cx="28" cy="27" r="24" fill="url(#shine)"/>
  <circle cx="28" cy="31" r="14" fill="url(#glow-g)"/>

  <path d="M16 35 Q11 42 13 47 Q20 43 22 37" fill="#0F1C30"/>
  <path d="M40 35 Q45 42 43 47 Q36 43 34 37" fill="#0F1C30"/>
  <path d="M16 33 Q28 38 40 33 L39 37 Q28 42 17 37 Z" fill="#1B2A4A" stroke="#4DD9C0" stroke-width="1" stroke-opacity="0.8"/>
  <path d="M16 33 Q28 38 40 33" fill="none" stroke="#4DD9C0" stroke-width="1.5" stroke-linecap="round" stroke-opacity="0.9"/>

  <ellipse cx="28" cy="37" rx="14" ry="13" fill="#1B2A4A"/>
  <path d="M28 32 L30.5 36 L28 40 L25.5 36 Z" fill="#F5C842" fill-opacity="0.9" stroke="#C8990A" stroke-width="0.8"/>

  <ellipse cx="28" cy="26" rx="11.5" ry="12" fill="url(#face-g)" stroke="#1B2A4A" stroke-width="1"/>

  <ellipse cx="16.5" cy="26" rx="2.5" ry="3.5" fill="#2D4A7A" stroke="#1B2A4A" stroke-width="0.8"/>
  <ellipse cx="39.5" cy="26" rx="2.5" ry="3.5" fill="#2D4A7A" stroke="#1B2A4A" stroke-width="0.8"/>

  <path d="M21 26.5 Q24 23 27 26.5" stroke="#1B2A4A" stroke-width="2.5" fill="none" stroke-linecap="round"/>
  <path d="M29 26.5 Q32 23 35 26.5" stroke="#1B2A4A" stroke-width="2.5" fill="none" stroke-linecap="round"/>

  <path d="M22 31 Q28 36 34 31" fill="#1B2A4A" stroke="#1B2A4A" stroke-width="1" stroke-linecap="round"/>
  <path d="M23 31.5 Q28 35.5 33 31.5" fill="white"/>
  <ellipse cx="28" cy="34" rx="4" ry="2.5" fill="#E8709A" fill-opacity="0.75"/>

  <rect x="19" y="16.5" width="18" height="5" rx="2.5" fill="#F5C842" stroke="#C8990A" stroke-width="0.8"/>
  <path d="M21 16.5 L21 11 L24 14 L28 8 L32 14 L35 11 L35 16.5 Z" fill="#F5C842" stroke="#C8990A" stroke-width="0.8" stroke-linejoin="round"/>
  <circle cx="28" cy="13.5" r="2.5" fill="#4DD9C0" stroke="#2AB09A" stroke-width="0.7"/>
  <circle cx="21.5" cy="16" r="1.8" fill="#E8709A" stroke="#B84A78" stroke-width="0.6"/>
  <circle cx="34.5" cy="16" r="1.8" fill="#E8709A" stroke="#B84A78" stroke-width="0.6"/>
</svg>
