<svg xmlns="http://www.w3.org/2000/svg" viewBox="0 0 120 120" width="120" height="120">
  <!-- Cape/body -->
  <ellipse cx="60" cy="95" rx="32" ry="18" fill="#CC2200"/>
  <!-- Cape flowing sides -->
  <path d="M28 88 Q15 105 22 115 Q38 108 45 98" fill="#AA1800"/>
  <path d="M92 88 Q105 105 98 115 Q82 108 75 98" fill="#AA1800"/>
  
  <!-- Body/torso -->
  <ellipse cx="60" cy="88" rx="22" ry="14" fill="#FFD700"/>
  <!-- S emblem -->
  <text x="60" y="93" font-family="Arial Black" font-size="14" font-weight="900" fill="#CC2200" text-anchor="middle">⚡</text>
  
  <!-- Head -->
  <circle cx="60" cy="58" r="28" fill="#FFD580"/>
  
  <!-- Mask -->
  <path d="M35 52 Q60 44 85 52 L85 62 Q60 55 35 62 Z" fill="#CC2200"/>
  <!-- Mask eye holes -->
  <ellipse cx="47" cy="56" rx="7" ry="5" fill="#FFD580"/>
  <ellipse cx="73" cy="56" rx="7" ry="5" fill="#FFD580"/>
  
  <!-- Angry eyes -->
  <circle cx="47" cy="57" r="4" fill="#1A1A1A"/>
  <circle cx="73" cy="57" r="4" fill="#1A1A1A"/>
  <circle cx="49" cy="55" r="1.5" fill="white"/>
  <circle cx="75" cy="55" r="1.5" fill="white"/>
  
  <!-- Angry eyebrows -->
  <path d="M40 48 L54 52" stroke="#CC2200" stroke-width="3" stroke-linecap="round"/>
  <path d="M66 52 L80 48" stroke="#CC2200" stroke-width="3" stroke-linecap="round"/>
  
  <!-- Angry mouth -->
  <path d="M48 70 Q60 64 72 70" stroke="#CC4400" stroke-width="2.5" fill="none" stroke-linecap="round"/>
  
  <!-- Ears -->
  <ellipse cx="32" cy="58" rx="5" ry="7" fill="#FFD580"/>
  <ellipse cx="88" cy="58" rx="5" ry="7" fill="#FFD580"/>
  
  <!-- Hair/helmet top -->
  <path d="M35 45 Q45 30 60 28 Q75 30 85 45" fill="#CC2200" stroke="none"/>
  <!-- Hair detail -->
  <path d="M55 28 Q58 18 60 15 Q62 18 65 28" fill="#AA1800"/>
</svg>
