<svg xmlns="http://www.w3.org/2000/svg" viewBox="0 0 120 120" width="120" height="120">
  <!-- Cape -->
  <ellipse cx="60" cy="95" rx="32" ry="18" fill="#FFD700"/>
  <path d="M28 88 Q15 105 22 115 Q38 108 45 98" fill="#FFC200"/>
  <path d="M92 88 Q105 105 98 115 Q82 108 75 98" fill="#FFC200"/>
  
  <!-- Body -->
  <ellipse cx="60" cy="88" rx="22" ry="14" fill="#00AAFF"/>
  <text x="60" y="93" font-family="Arial Black" font-size="14" font-weight="900" fill="#FFD700" text-anchor="middle">★</text>
  
  <!-- Head -->
  <circle cx="60" cy="58" r="28" fill="#FFD580"/>
  
  <!-- Mask - blue hero style -->
  <path d="M35 50 Q60 42 85 50 L85 60 Q60 53 35 60 Z" fill="#00AAFF"/>
  <ellipse cx="47" cy="54" rx="7" ry="5" fill="#FFD580"/>
  <ellipse cx="73" cy="54" rx="7" ry="5" fill="#FFD580"/>
  
  <!-- Happy eyes (squinting) -->
  <path d="M43 55 Q47 51 51 55" stroke="#1A1A1A" stroke-width="2.5" fill="none" stroke-linecap="round"/>
  <path d="M69 55 Q73 51 77 55" stroke="#1A1A1A" stroke-width="2.5" fill="none" stroke-linecap="round"/>
  
  <!-- Happy eyebrows -->
  <path d="M41 47 Q47 45 53 47" stroke="#00AAFF" stroke-width="2.5" fill="none" stroke-linecap="round"/>
  <path d="M67 47 Q73 45 79 47" stroke="#00AAFF" stroke-width="2.5" fill="none" stroke-linecap="round"/>
  
  <!-- Big smile -->
  <path d="M46 68 Q60 80 74 68" stroke="#CC6600" stroke-width="2.5" fill="#FF9944" stroke-linecap="round"/>
  <!-- Teeth -->
  <path d="M49 70 Q60 77 71 70" fill="white"/>
  
  <!-- Rosy cheeks -->
  <ellipse cx="42" cy="65" rx="7" ry="5" fill="#FFB3A0" opacity="0.6"/>
  <ellipse cx="78" cy="65" rx="7" ry="5" fill="#FFB3A0" opacity="0.6"/>
  
  <!-- Ears -->
  <ellipse cx="32" cy="58" rx="5" ry="7" fill="#FFD580"/>
  <ellipse cx="88" cy="58" rx="5" ry="7" fill="#FFD580"/>
  
  <!-- Hair/helmet -->
  <path d="M35 43 Q45 28 60 26 Q75 28 85 43" fill="#00AAFF"/>
  <path d="M55 26 Q58 16 60 13 Q62 16 65 26" fill="#0088CC"/>
</svg>
