<svg xmlns="http://www.w3.org/2000/svg" viewBox="0 0 120 120" width="120" height="120">
  <!-- Cape -->
  <ellipse cx="60" cy="95" rx="32" ry="18" fill="#7744CC"/>
  <path d="M28 88 Q15 105 22 115 Q38 108 45 98" fill="#5522AA"/>
  <path d="M92 88 Q105 105 98 115 Q82 108 75 98" fill="#5522AA"/>
  
  <!-- Body -->
  <ellipse cx="60" cy="88" rx="22" ry="14" fill="#44AACC"/>
  <text x="60" y="93" font-family="Arial Black" font-size="14" font-weight="900" fill="#7744CC" text-anchor="middle">◈</text>
  
  <!-- Head -->
  <circle cx="60" cy="58" r="28" fill="#FFD580"/>
  
  <!-- Mask - purple -->
  <path d="M35 50 Q60 42 85 50 L85 60 Q60 53 35 60 Z" fill="#7744CC"/>
  <ellipse cx="47" cy="54" rx="7" ry="5" fill="#FFD580"/>
  <ellipse cx="73" cy="54" rx="7" ry="5" fill="#FFD580"/>
  
  <!-- Neutral eyes -->
  <circle cx="47" cy="55" r="4" fill="#1A1A1A"/>
  <circle cx="73" cy="55" r="4" fill="#1A1A1A"/>
  <circle cx="49" cy="53" r="1.5" fill="white"/>
  <circle cx="75" cy="53" r="1.5" fill="white"/>
  
  <!-- Eyebrows straight -->
  <path d="M41 46 L53 46" stroke="#7744CC" stroke-width="2.5" stroke-linecap="round"/>
  <path d="M67 46 L79 46" stroke="#7744CC" stroke-width="2.5" stroke-linecap="round"/>
  
  <!-- Flat mouth -->
  <path d="M49 70 L71 70" stroke="#AA8844" stroke-width="2.5" stroke-linecap="round"/>
  
  <!-- Ears -->
  <ellipse cx="32" cy="58" rx="5" ry="7" fill="#FFD580"/>
  <ellipse cx="88" cy="58" rx="5" ry="7" fill="#FFD580"/>
  
  <!-- Hair/helmet -->
  <path d="M35 43 Q45 28 60 26 Q75 28 85 43" fill="#7744CC"/>
  <path d="M55 26 Q58 16 60 13 Q62 16 65 26" fill="#5522AA"/>
</svg>
